<svg id="Layer_1" data-name="Layer 1" xmlns="http://www.w3.org/2000/svg" viewBox="0 0 600 187"><defs><style>.cls-1{fill:none;}.cls-2{fill:#ec1e79;}.cls-3{fill:#f69220;}</style></defs><title>drover_final</title><path class="cls-1" d="M29.68,134.27c0,16.6,6.79,24.33,19.24,24.33,8.3,0,13.39-3.77,17.16-7V108.06A26.21,26.21,0,0,0,54.2,105.6C37.23,105.6,29.68,117.11,29.68,134.27Z"/><path class="cls-1" d="M220.11,127.52A37.16,37.16,0,0,0,234.23,158c8.48,6.57,19.15,8.38,30.07,5.08,10.33-3.12,17.65-11.17,20.08-22.08,3.17-14.19-2.24-29.65-14.13-40.35a121.78,121.78,0,0,0-22-15.65C233.82,96,220.82,110.5,220.11,127.52Z"/><path class="cls-1" d="M472.13,102.21c-11.69,0-18.85,7.55-19.61,19.43h35.27C489.3,111.83,485.72,102.21,472.13,102.21Z"/><path class="cls-2" d="M68.12,85.24C63.6,83,57.37,81.85,50.59,81.85,22.11,81.85,4,101.65,4,136.16c0,28.1,12.07,47.15,37.53,47.15,12.64,0,23.58-5.09,28.48-14.9h1.51l3.58,13c7.74,0,15.28-1.51,20.37-4.34V38.84c-12.07,0-20.93,1.89-27.35,5.47Zm.38,66.39c-3.77,3.2-8.86,7-17.16,7-12.45,0-19.24-7.73-19.24-24.33,0-17.16,7.55-28.67,24.52-28.67a26.21,26.21,0,0,1,11.88,2.46Z"/><path class="cls-2" d="M170.66,81.85c-15.47,0-21.5,8.86-24.14,19.23H145l-1.89-17.35c-9.05,0-17,1.51-22.07,4.34v90c2.65,1.32,7.17,2.26,13.77,2.26S146,179.35,148.4,178V125.41C152,115.6,159.15,109,168.77,109c5.85,0,9.43,1.13,13,3.21a32.63,32.63,0,0,0,1.7-11.51c0-7.16-1.32-12.44-4-17.16A20.08,20.08,0,0,0,170.66,81.85Z"/><path class="cls-2" d="M390.46,86.18l-14.34,48.66a199.07,199.07,0,0,0-5.46,24.33h-1.51a191.36,191.36,0,0,0-5.85-24.33L348,86.18c-1.69-.75-5.66-1.69-11.31-1.69-7.92,0-13.2,1.5-16.6,3.77L351,181.43c13.39,0,27.35-1,37.34-3.78l29.8-89.39c-3.39-2.27-8.67-3.77-16.4-3.77C395.74,84.49,392.53,85.43,390.46,86.18Z"/><path class="cls-2" d="M513.44,123.71c0-24.89-12.64-41.86-40.17-41.86-29.61,0-48.47,20.36-48.47,51.86,0,30.55,17.54,49.6,50.54,49.6,13,0,23.58-3,29.8-6.6,4.34-4.91,7.36-14.15,6.79-21.31-6.79,3-17.35,5.66-29.42,5.66-18.67,0-28.1-6.42-29.23-19.62h57.33A58.09,58.09,0,0,0,513.44,123.71Zm-25.65-2.07H452.52c.76-11.88,7.92-19.43,19.61-19.43C485.72,102.21,489.3,111.83,487.79,121.64Z"/><path class="cls-2" d="M593,83.54a20.08,20.08,0,0,0-8.86-1.69c-15.47,0-21.5,8.86-24.15,19.23h-1.5l-1.89-17.35c-9,0-17,1.51-22.06,4.34v90c2.64,1.32,7.16,2.26,13.76,2.26s11.13-.94,13.58-2.26V125.41c3.59-9.81,10.75-16.41,20.37-16.41,5.85,0,9.43,1.13,13,3.21A32.63,32.63,0,0,0,597,100.7C597,93.54,595.68,88.26,593,83.54Z"/><path class="cls-3" d="M326,73.92a10.26,10.26,0,0,0,10.23-9.64c.48-7.93,8.82-23.87,14-32.05a10.26,10.26,0,0,0-8.33-15.72c-10.24-.36-25.43-8.86-30.42-12.12A10.26,10.26,0,0,0,300.2,21.57a125.71,125.71,0,0,0,12,6.78c-13.89,5.12-29.22,13-47.61,22.42q-9.72,5-18,10.33c-33.71-15.38-65-15.77-66.74-15.78h-.06a10.26,10.26,0,0,0-.05,20.52,158.58,158.58,0,0,1,47.73,9.62c-17.59,15.67-27.09,33-27.84,51.21a58,58,0,0,0,22,47.52,51.46,51.46,0,0,0,31.92,11,57.71,57.71,0,0,0,16.66-2.53c17.61-5.32,30.07-18.9,34.17-37.25C309.19,124,301.36,101,284,85.37a139.52,139.52,0,0,0-16.61-12.81c2.31-1.29,4.53-2.48,6.6-3.54,17.93-9.2,32.82-16.84,45.6-21.52A55.84,55.84,0,0,0,315.74,63a10.25,10.25,0,0,0,9.62,10.86C325.57,73.92,325.78,73.92,326,73.92Zm-55.74,26.7c11.89,10.7,17.3,26.16,14.13,40.35-2.43,10.91-9.75,19-20.08,22.08-10.92,3.3-21.59,1.49-30.07-5.08a37.16,37.16,0,0,1-14.12-30.45c.71-17,13.71-31.56,28.17-42.55A121.78,121.78,0,0,1,270.25,100.62Z"/></svg>