<svg id="Layer_1" data-name="Layer 1" xmlns="http://www.w3.org/2000/svg" xmlns:xlink="http://www.w3.org/1999/xlink" viewBox="0 0 180 180"><defs><style>.cls-1{fill:url(#linear-gradient);}.cls-2{fill:#fff;}</style><linearGradient id="linear-gradient" x1="73.89" y1="-11.7" x2="106.11" y2="191.7" gradientUnits="userSpaceOnUse"><stop offset="0" stop-color="#ec1e79"/><stop offset="1" stop-color="#bb0549"/></linearGradient></defs><title>drover_final</title><rect class="cls-1" width="180" height="180"/><path class="cls-2" d="M131.81,77.92a6.79,6.79,0,0,0,6.77-6.37c.31-5.25,5.83-15.8,9.23-21.21a6.79,6.79,0,0,0-5.51-10.4c-6.78-.24-16.82-5.87-20.13-8a6.79,6.79,0,0,0-7.42,11.37,80,80,0,0,0,7.94,4.48c-9.19,3.39-19.34,8.59-31.5,14.84-4.29,2.19-8.27,4.48-11.93,6.83A118.22,118.22,0,0,0,35.1,59h0a6.79,6.79,0,0,0,0,13.58,105,105,0,0,1,31.58,6.36C55,89.31,48.69,100.77,48.19,112.83a38.36,38.36,0,0,0,14.59,31.43,34,34,0,0,0,21.12,7.3,38.1,38.1,0,0,0,11-1.67c11.66-3.52,19.9-12.51,22.61-24.65,3.16-14.16-2-29.39-13.52-39.74A92.8,92.8,0,0,0,93,77c1.53-.86,3-1.64,4.37-2.35,11.86-6.08,21.71-11.14,30.17-14.24A37.23,37.23,0,0,0,125,70.73a6.79,6.79,0,0,0,6.37,7.18ZM94.93,95.59c7.86,7.08,11.45,17.31,9.35,26.69A19.1,19.1,0,0,1,91,136.89a21.45,21.45,0,0,1-19.89-3.36,24.57,24.57,0,0,1-9.34-20.14c.46-11.26,9.06-20.88,18.63-28.15A80.35,80.35,0,0,1,94.93,95.59Z"/></svg>